<?xml version="1.0" encoding="UTF-8"?>
<!DOCTYPE svg PUBLIC "-//W3C//DTD SVG 1.1//EN" "http://www.w3.org/Graphics/SVG/1.1/DTD/svg11.dtd">
<svg xmlns="http://www.w3.org/2000/svg" version="1.1" width="328px" height="474px" style="shape-rendering:geometricPrecision; text-rendering:geometricPrecision; image-rendering:optimizeQuality; fill-rule:evenodd; clip-rule:evenodd" xmlns:xlink="http://www.w3.org/1999/xlink">
<g><path style="opacity:1" fill="#a91314" d="M 86.5,54.5 C 137.834,54.3333 189.168,54.5 240.5,55C 257.444,59.61 267.944,70.4433 272,87.5C 272.667,186.833 272.667,286.167 272,385.5C 267.833,403 257,413.833 239.5,418C 188.833,418.667 138.167,418.667 87.5,418C 70,413.833 59.1667,403 55,385.5C 54.3333,286.167 54.3333,186.833 55,87.5C 59.2409,70.4277 69.7409,59.4277 86.5,54.5 Z"/></g>
<g><path style="opacity:1" fill="#fefcfc" d="M 111.5,79.5 C 143.835,79.3334 176.168,79.5 208.5,80C 209.931,80.4652 211.097,81.2986 212,82.5C 218.333,91.5 224.667,100.5 231,109.5C 231.395,145.185 231.728,180.851 232,216.5C 229.321,219.835 226.155,220.335 222.5,218C 212.283,210.4 207.283,200.233 207.5,187.5C 208.167,180.5 208.833,173.5 209.5,166.5C 209.473,163.911 209.139,161.411 208.5,159C 198.678,158.272 188.845,157.772 179,157.5C 161.505,158.436 144.005,158.602 126.5,158C 124.109,157.713 121.776,157.213 119.5,156.5C 118.667,176.492 118.167,196.492 118,216.5C 115.485,220.93 112.152,221.596 108,218.5C 101.589,211.344 97.5892,203.011 96,193.5C 95.3333,168.167 95.3333,142.833 96,117.5C 96.1467,108.117 96.8134,98.7833 98,89.5C 101.369,84.5728 105.869,81.2395 111.5,79.5 Z"/></g>
<g><path style="opacity:1" fill="#aa1817" d="M 155.5,101.5 C 172.503,101.333 189.503,101.5 206.5,102C 207,102.5 207.5,103 208,103.5C 209.347,114.807 209.68,126.14 209,137.5C 190.231,139.144 171.398,140.644 152.5,142C 141.152,142.832 129.819,142.666 118.5,141.5C 117.461,129.788 117.961,118.122 120,106.5C 120.75,105.874 121.584,105.374 122.5,105C 133.701,104.323 144.701,103.156 155.5,101.5 Z"/></g>
<g><path style="opacity:1" fill="#fefbfb" d="M 104.5,242.5 C 144.168,242.333 183.835,242.5 223.5,243C 225.848,243.346 227.681,244.513 229,246.5C 230.403,264.147 230.736,281.814 230,299.5C 228.92,301.996 227.586,304.33 226,306.5C 219.812,311.69 213.979,317.19 208.5,323C 178.814,323.793 149.148,323.627 119.5,322.5C 119.03,339.516 118.196,356.516 117,373.5C 117.27,402.299 109.27,404.966 93,381.5C 91.0264,375.938 89.5264,370.271 88.5,364.5C 90.1667,364.5 91.8333,364.5 93.5,364.5C 95.9766,327.218 97.1433,289.884 97,252.5C 99.0104,248.676 101.51,245.342 104.5,242.5 Z"/></g>
<g><path style="opacity:1" fill="#a91615" d="M 129.5,260.5 C 156.172,261 182.838,261.667 209.5,262.5C 209.666,272.506 209.5,282.506 209,292.5C 207.61,298.891 203.776,303.058 197.5,305C 172.836,305.5 148.169,305.667 123.5,305.5C 122.255,291.154 120.922,276.821 119.5,262.5C 123.011,262.101 126.344,261.434 129.5,260.5 Z"/></g>
</svg>
